{"glyphs":{"0":{"ha":736,"x_min":65,"x_max":672,"o":"m 368 0 l 367 0 q 335 18 344 0 l 74 471 q 74 508 65 489 l 336 954 q 368 972 350 972 l 369 972 q 401 954 390 972 l 661 506 q 661 468 672 488 l 400 18 q 368 0 386 0 m 150 489 l 368 111 l 586 488 l 368 861 l 150 489 m 368 350 q 342 361 353 350 q 331 388 331 372 l 331 583 q 342 610 331 599 q 368 621 353 621 q 394 610 383 621 q 404 583 404 599 l 404 388 q 394 361 404 372 q 368 350 383 350 m 292 407 q 260 425 269 407 q 255 453 251 439 q 271 476 258 468 l 418 565 q 447 570 432 574 q 469 554 463 567 q 474 526 478 540 q 458 503 471 511 l 311 413 q 292 407 301 407 z "},"1":{"ha":474,"x_min":69,"x_max":404,"o":"m 367 0 q 340 11 351 0 q 329 38 329 22 l 329 897 l 107 897 q 81 908 92 897 q 69 935 69 919 q 81 961 69 950 q 107 972 92 972 l 367 972 q 393 961 382 972 q 404 935 404 950 l 404 38 q 393 11 404 22 q 367 0 382 0 m 107 638 q 81 649 90 638 q 69 675 69 660 q 81 701 69 690 l 340 961 q 367 972 351 972 q 393 961 382 972 q 404 935 404 950 q 393 908 404 919 l 133 649 q 107 638 124 638 z "},"2":{"ha":593,"x_min":69,"x_max":528,"o":"m 485 0 l 107 0 q 81 11 92 0 q 69 38 69 22 l 69 142 q 72 158 69 147 l 426 897 l 107 897 q 81 908 92 897 q 69 935 69 919 q 81 961 69 950 q 107 972 92 972 l 485 972 q 517 956 504 972 q 519 919 528 938 l 144 133 l 144 75 l 485 75 q 511 64 500 75 q 522 38 522 53 q 511 11 522 22 q 485 0 500 0 z "},"3":{"ha":593,"x_min":69,"x_max":528,"o":"m 239 389 q 222 393 228 389 q 203 414 207 400 q 206 442 199 428 l 425 897 l 107 897 q 81 908 92 897 q 69 935 69 919 q 81 961 69 950 q 107 972 92 972 l 486 972 q 518 956 504 972 q 518 918 528 935 l 272 410 q 239 389 263 389 m 239 0 q 222 4 231 0 q 203 25 207 11 q 206 54 199 39 l 425 510 l 107 510 q 81 521 92 510 q 69 547 69 532 q 81 573 69 563 q 107 583 92 583 l 486 583 q 518 567 506 583 q 518 531 528 547 l 272 21 q 239 0 263 0 z "},"4":{"ha":594,"x_min":69,"x_max":525,"o":"m 488 0 q 461 11 472 0 q 450 38 450 22 l 450 597 l 125 421 q 88 422 104 411 q 69 454 69 433 l 69 931 q 81 957 69 946 q 107 968 92 968 q 133 957 122 968 q 144 931 144 946 l 144 515 l 469 692 q 507 690 488 701 q 525 658 525 679 l 525 38 q 514 11 525 22 q 488 0 503 0 m 308 524 q 283 535 293 524 q 272 561 272 546 l 272 935 q 283 961 272 950 q 308 972 293 972 q 335 961 324 972 q 346 935 346 950 l 346 561 q 335 535 346 546 q 308 524 324 524 z "},"5":{"ha":593,"x_min":69,"x_max":528,"o":"m 485 972 q 511 961 500 972 q 522 935 522 950 q 511 908 522 919 q 485 897 500 897 l 144 897 l 144 839 l 519 53 q 517 17 528 35 q 485 0 504 0 l 107 0 q 81 11 92 0 q 69 38 69 22 q 81 64 69 53 q 107 75 92 75 l 425 75 l 72 814 q 69 831 69 825 l 69 935 q 81 961 69 950 q 107 972 92 972 l 485 972 z "},"6":{"ha":588,"x_min":69,"x_max":518,"o":"m 107 972 q 133 961 122 972 q 144 935 144 950 l 144 474 l 499 285 q 518 251 518 274 q 513 233 518 242 q 499 219 508 224 l 125 6 q 88 6 107 -8 q 69 38 69 15 l 69 935 q 81 961 69 950 q 107 972 92 972 m 404 250 l 144 389 l 144 101 l 404 250 z "},"7":{"ha":600,"x_min":69,"x_max":532,"o":"m 367 0 q 340 11 351 0 q 329 38 329 22 l 329 897 l 107 897 q 81 908 92 897 q 69 935 69 919 q 81 961 69 950 q 107 972 92 972 l 367 972 q 393 961 382 972 q 404 935 404 950 l 404 38 q 393 11 404 22 q 367 0 382 0 m 172 328 q 140 346 150 328 q 135 374 132 358 q 153 397 139 389 l 472 594 q 500 599 485 603 q 524 582 515 596 q 528 554 532 569 q 511 531 525 539 l 192 332 q 172 328 183 328 z "},"8":{"ha":594,"x_min":65,"x_max":529,"o":"m 486 0 l 108 0 q 82 11 93 0 q 71 38 71 22 l 71 142 q 74 158 71 147 l 258 542 l 75 919 q 76 956 65 935 q 108 972 89 972 l 486 972 q 518 956 506 972 q 521 919 529 938 l 342 543 l 519 174 q 524 157 524 168 l 524 38 q 513 11 524 22 q 486 0 501 0 m 146 75 l 449 75 l 449 149 l 300 456 l 146 133 l 146 75 m 168 897 l 299 628 l 428 897 l 168 897 z "},"9":{"ha":588,"x_min":69,"x_max":518,"o":"m 481 0 q 454 11 465 0 q 443 38 443 22 l 443 499 l 89 688 q 69 721 69 699 q 74 740 69 731 q 89 753 79 749 l 463 967 q 500 967 482 981 q 513 953 508 963 q 518 935 518 944 l 518 38 q 507 11 518 22 q 481 0 496 0 m 183 722 l 443 583 l 443 871 l 183 722 z "},"\r":{"ha":347,"x_min":0,"x_max":0,"o":""}," ":{"ha":347,"x_min":0,"x_max":0,"o":""},"\"":{"ha":343,"x_min":68,"x_max":276,"o":"m 124 774 q 108 781 114 774 q 101 796 101 788 l 101 938 q 124 960 101 960 q 146 938 146 960 l 146 796 q 140 781 146 788 q 124 774 133 774 m 211 774 q 197 781 203 774 q 190 796 190 788 l 190 938 q 197 953 190 947 q 211 960 203 960 q 233 938 233 960 l 233 796 q 227 781 233 788 q 211 774 221 774 m 93 822 q 71 839 75 822 q 88 865 68 861 l 246 899 q 263 897 256 901 q 272 882 271 892 q 256 856 276 863 l 99 822 l 93 822 z "},"'":{"ha":183,"x_min":69,"x_max":114,"o":"m 92 786 q 76 793 82 786 q 69 808 69 800 l 69 950 q 92 972 69 972 q 114 950 114 972 l 114 808 q 108 793 114 800 q 92 786 101 786 z "},"!":{"ha":397,"x_min":74,"x_max":321,"o":"m 190 132 q 164 143 175 132 q 153 169 153 154 l 153 935 q 164 961 153 950 q 190 972 175 972 q 217 961 206 972 q 228 935 228 950 l 228 169 q 217 143 228 154 q 190 132 206 132 m 113 244 q 90 253 100 244 q 76 275 79 261 q 82 303 74 290 q 106 318 90 315 l 258 351 q 287 346 274 354 q 303 322 300 338 q 298 294 306 307 q 275 279 290 282 l 122 246 q 113 244 118 244 m 285 0 l 111 0 q 85 11 96 0 q 74 38 74 22 q 85 64 74 53 q 111 75 96 75 l 285 75 q 310 64 300 75 q 321 38 321 53 q 310 11 321 22 q 285 0 300 0 z "},"#":{"ha":740,"x_min":67,"x_max":672,"o":"m 111 286 q 85 299 97 286 q 74 325 74 310 q 85 351 74 340 l 608 875 q 635 886 619 886 q 661 875 650 886 q 672 849 672 864 q 661 824 672 835 l 138 299 q 111 286 125 286 m 106 89 q 81 100 89 89 q 69 126 69 111 q 81 153 69 142 l 608 681 q 634 692 619 692 q 660 681 649 692 q 671 654 671 669 q 660 628 671 639 l 132 100 q 106 89 121 89 m 628 282 q 601 294 613 282 l 78 818 q 67 844 67 829 q 78 871 67 860 q 104 882 89 882 q 131 871 119 882 l 654 346 q 665 320 665 335 q 654 294 665 306 q 628 282 644 282 m 633 85 q 607 96 618 85 l 79 624 q 68 650 68 635 q 79 676 68 665 q 106 688 90 688 q 132 676 121 688 l 660 149 q 671 122 671 138 q 660 96 671 107 q 633 85 649 85 z "},"$":{"ha":593,"x_min":65,"x_max":531,"o":"m 107 10 q 85 17 93 10 q 71 42 72 26 q 78 69 69 57 l 410 492 l 107 492 q 74 514 85 492 q 82 554 65 535 l 453 954 q 479 966 464 965 q 506 957 494 967 q 518 931 517 946 q 508 904 519 915 l 193 565 l 486 565 q 519 544 510 565 q 515 506 531 525 l 138 24 q 107 10 124 10 m 297 0 q 271 10 282 0 q 260 36 260 21 l 260 936 q 271 962 260 951 q 297 972 282 972 q 323 962 313 972 q 333 936 333 951 l 333 36 q 323 10 333 21 q 297 0 313 0 z "},"%":{"ha":739,"x_min":67,"x_max":671,"o":"m 367 0 q 340 11 351 0 q 329 38 329 22 l 329 935 q 340 961 329 950 q 367 972 351 972 q 393 961 382 972 q 404 935 404 950 l 404 38 q 393 11 404 22 q 367 0 382 0 m 107 1 q 88 7 97 1 q 71 28 75 14 q 75 57 67 43 l 599 953 q 622 969 607 965 q 650 965 636 974 q 667 944 664 958 q 664 915 671 929 l 139 19 q 107 1 129 1 m 521 115 q 489 133 500 115 q 471 162 481 146 q 453 192 461 178 q 438 217 444 207 q 428 232 431 228 q 426 235 426 233 q 421 257 419 246 q 429 278 422 268 l 499 394 q 531 413 510 413 q 563 394 554 413 l 624 292 q 624 254 638 272 l 553 133 q 521 115 542 115 l 521 115 m 503 254 q 521 225 510 242 l 549 272 l 531 301 l 503 254 m 197 578 q 165 596 176 578 q 147 624 157 608 q 128 655 138 640 q 113 681 119 669 q 104 694 107 692 q 103 697 103 696 q 106 740 89 719 l 175 857 q 207 875 186 875 q 239 857 228 875 l 300 754 q 300 717 311 735 l 229 596 q 197 578 218 578 l 197 578 m 178 717 q 196 688 188 703 l 225 735 l 207 764 l 178 717 z "},"*":{"ha":435,"x_min":69,"x_max":365,"o":"m 139 710 q 113 719 122 710 q 101 747 101 731 q 113 774 101 763 l 268 929 q 295 940 279 940 q 322 929 311 940 q 333 902 333 918 q 322 875 333 886 l 167 719 q 139 710 156 710 m 326 788 l 107 788 q 81 799 92 788 q 69 825 69 810 q 81 851 69 840 q 107 863 92 863 l 326 863 q 353 851 342 863 q 365 825 365 840 q 353 799 365 810 q 326 788 342 788 m 217 676 q 190 688 201 676 q 179 715 179 700 l 179 935 q 190 961 179 950 q 217 972 201 972 q 243 961 232 972 q 254 935 254 950 l 254 715 q 243 688 254 700 q 217 676 232 676 z "},"&":{"ha":711,"x_min":64,"x_max":643,"o":"m 372 0 l 369 0 q 342 17 351 0 l 103 363 q 103 404 89 386 l 199 546 l 78 722 q 76 764 64 744 l 204 956 q 235 972 215 972 l 235 972 q 265 956 256 972 l 399 751 q 399 711 413 733 l 288 546 l 615 67 q 622 40 625 54 q 607 17 619 25 q 579 10 593 7 q 556 26 565 13 l 243 481 l 178 385 l 375 96 l 404 126 q 429 139 414 138 q 456 129 444 140 q 467 104 467 119 q 457 78 468 89 l 399 13 q 372 0 389 0 m 153 743 l 243 611 l 324 732 l 235 868 l 153 743 m 603 346 q 572 361 583 346 l 429 571 q 422 598 419 583 q 438 621 425 613 q 489 611 468 639 l 633 403 q 640 375 643 390 q 624 351 638 360 q 603 346 617 346 z "},"(":{"ha":528,"x_min":69,"x_max":458,"o":"m 106 304 q 81 314 90 304 q 69 340 69 325 q 81 367 69 356 l 336 624 q 363 635 347 635 q 389 624 378 635 q 400 597 400 613 q 389 571 400 582 l 132 314 q 106 304 122 304 m 422 0 l 218 0 q 192 10 203 0 q 182 36 182 21 l 182 936 q 192 962 182 951 q 218 972 203 972 l 422 972 q 448 962 438 972 q 458 936 458 951 q 448 910 458 921 q 422 899 438 899 l 256 899 l 256 74 l 422 74 q 448 63 438 74 q 458 36 458 51 q 448 10 458 21 q 422 0 438 0 z "},")":{"ha":528,"x_min":69,"x_max":458,"o":"m 422 668 q 447 658 438 668 q 458 632 458 647 q 447 606 458 617 l 192 349 q 165 338 181 338 q 139 349 150 338 q 128 375 128 360 q 139 401 128 390 l 396 658 q 422 668 406 668 m 106 972 l 310 972 q 335 962 325 972 q 346 936 346 951 l 346 36 q 335 10 346 21 q 310 0 325 0 l 106 0 q 80 10 90 0 q 69 36 69 21 q 80 63 69 51 q 106 74 90 74 l 272 74 l 272 899 l 106 899 q 80 910 90 899 q 69 936 69 921 q 80 962 69 951 q 106 972 90 972 z "},"+":{"ha":593,"x_min":69,"x_max":524,"o":"m 290 0 q 264 11 275 0 q 253 38 253 22 l 253 935 q 264 961 253 950 q 290 972 275 972 q 317 961 306 972 q 328 935 328 950 l 328 38 q 317 11 328 22 q 290 0 306 0 m 486 447 l 107 447 q 81 458 92 447 q 69 485 69 469 q 81 511 69 500 q 107 522 92 522 l 486 522 q 513 511 501 522 q 524 485 524 500 q 513 458 524 469 q 486 447 501 447 z "},"A":{"ha":740,"x_min":68,"x_max":672,"o":"m 632 0 q 596 26 606 0 l 499 357 l 403 357 l 403 40 q 392 14 403 25 q 365 3 381 3 q 340 14 350 3 q 329 40 329 25 l 329 357 l 240 357 l 144 26 q 126 4 139 11 q 97 1 113 -3 q 75 19 82 6 q 72 49 68 33 l 333 946 q 369 972 343 972 q 407 946 397 972 l 668 49 q 665 19 672 33 q 643 1 658 6 q 632 0 639 0 m 263 432 l 478 432 l 369 801 l 263 432 z "},"a":{"ha":543,"x_min":-29,"x_max":575,"o":"m 535 0 q 499 26 508 0 l 401 357 l 306 357 l 306 40 q 294 14 306 25 q 268 3 283 3 q 242 14 253 3 q 232 40 232 25 l 232 357 l 143 357 l 47 26 q 28 4 42 11 q 0 1 15 -3 q -22 19 -15 6 q -25 49 -29 33 l 236 946 q 272 972 246 972 q 310 946 300 972 l 571 49 q 568 19 575 33 q 546 1 561 6 q 535 0 542 0 m 165 432 l 381 432 l 272 801 l 165 432 z "},"B":{"ha":739,"x_min":69,"x_max":676,"o":"m 631 0 l 107 0 q 81 11 92 0 q 69 38 69 22 q 72 217 71 122 q 74 408 72 313 q 76 592 75 503 q 77 751 76 681 q 77 870 78 822 q 76 929 76 918 q 78 946 76 938 q 86 961 79 954 q 128 969 104 979 q 140 961 135 968 l 656 515 q 667 475 676 501 q 631 451 657 451 l 210 451 l 656 65 q 667 25 676 49 q 631 0 657 0 m 150 525 l 531 525 l 151 853 l 151 793 q 151 676 151 743 q 150 525 150 608 m 144 75 l 531 75 l 149 404 q 146 210 147 300 q 144 75 144 121 z "},"b":{"ha":701,"x_min":97,"x_max":704,"o":"m 658 0 l 135 0 q 108 11 119 0 q 97 38 97 22 q 99 217 99 122 q 101 408 100 313 q 103 592 103 503 q 105 751 104 681 q 106 870 106 822 q 104 929 106 918 l 104 933 q 114 961 104 951 q 156 969 132 979 q 168 961 163 968 l 683 515 q 694 475 704 501 q 658 451 685 451 l 238 451 l 683 65 q 694 25 704 49 q 658 0 685 0 m 172 75 l 558 75 l 176 404 q 174 210 175 300 q 172 75 172 121 m 178 525 l 558 525 l 179 853 l 179 793 q 178 676 179 743 q 178 525 178 608 z "},"C":{"ha":743,"x_min":69,"x_max":675,"o":"m 636 0 q 611 10 622 0 l 82 467 q 69 493 71 478 q 79 519 69 510 l 464 960 q 492 972 475 972 l 636 972 q 663 961 651 972 q 674 935 674 950 q 663 908 674 919 q 636 897 651 897 l 508 897 l 160 499 l 661 65 q 674 40 672 56 q 664 13 675 25 q 636 0 654 0 z "},"c":{"ha":635,"x_min":29,"x_max":635,"o":"m 596 0 q 571 10 582 0 l 42 467 q 29 493 31 478 q 39 519 29 510 l 424 960 q 451 972 435 972 l 596 972 q 622 961 611 972 q 633 935 633 950 q 622 908 633 919 q 596 897 611 897 l 468 897 l 119 499 l 621 65 q 633 40 632 56 q 624 13 635 25 q 596 0 614 0 z "},"D":{"ha":718,"x_min":101,"x_max":710,"o":"m 140 0 q 126 3 135 0 q 112 13 119 6 q 103 38 104 21 l 103 47 q 101 76 101 54 l 101 179 l 101 486 q 101 650 101 569 q 102 794 101 731 q 103 896 103 857 q 103 935 103 935 q 114 961 103 950 q 140 972 125 972 l 285 972 q 313 960 303 972 l 697 519 q 707 493 710 508 q 694 467 706 478 l 165 10 q 140 0 156 0 m 178 897 q 177 684 178 797 q 176 465 176 571 q 176 267 176 358 q 176 118 176 176 l 617 499 l 268 897 l 178 897 z "},"d":{"ha":735,"x_min":101,"x_max":710,"o":"m 140 0 q 126 3 135 0 q 112 13 119 6 q 103 38 104 21 l 103 47 q 101 76 101 54 l 101 179 l 101 486 q 101 650 101 569 q 102 794 101 731 q 103 896 103 857 q 103 935 103 935 q 114 961 103 950 q 140 972 125 972 l 285 972 q 313 960 303 972 l 697 519 q 707 493 710 508 q 694 467 706 478 l 165 10 q 140 0 156 0 m 178 897 q 177 684 178 797 q 176 465 176 571 q 176 267 176 358 q 176 118 176 176 l 617 499 l 268 897 l 178 897 z "},"E":{"ha":738,"x_min":99,"x_max":708,"o":"m 139 0 q 113 11 124 0 q 101 38 101 22 l 101 935 q 113 961 101 950 q 139 972 124 972 q 165 961 154 972 q 176 935 176 950 l 176 38 q 165 11 176 22 q 139 0 154 0 m 140 601 q 108 621 117 601 q 104 649 100 635 q 122 672 108 664 l 650 968 q 668 972 658 972 q 701 953 690 972 q 705 924 708 939 q 688 901 701 910 l 158 607 q 140 601 147 601 m 140 317 q 108 336 118 317 q 104 365 100 350 q 122 388 108 381 l 650 683 q 669 688 658 688 q 701 669 692 688 q 705 640 708 654 q 688 618 701 625 l 158 322 q 140 317 147 317 m 139 3 q 107 21 117 3 q 103 50 99 35 q 121 72 107 65 l 650 368 q 668 372 658 372 q 701 354 692 372 q 704 325 708 340 q 686 303 700 310 l 157 7 q 139 3 149 3 z "},"e":{"ha":757,"x_min":99,"x_max":708,"o":"m 139 0 q 113 11 124 0 q 101 38 101 22 l 101 935 q 113 961 101 950 q 139 972 124 972 q 165 961 154 972 q 176 935 176 950 l 176 38 q 165 11 176 22 q 139 0 154 0 m 140 601 q 108 621 117 601 q 104 649 100 635 q 122 672 108 664 l 650 968 q 668 972 658 972 q 701 953 690 972 q 705 924 708 939 q 688 901 701 910 l 158 607 q 140 601 147 601 m 140 317 q 108 336 118 317 q 104 365 100 350 q 122 388 108 381 l 650 683 q 669 688 658 688 q 701 669 692 688 q 705 640 708 654 q 688 618 701 625 l 158 322 q 140 317 147 317 m 139 3 q 107 21 117 3 q 103 50 99 35 q 121 72 107 65 l 650 368 q 668 372 658 372 q 701 354 692 372 q 704 325 708 340 q 686 303 700 310 l 157 7 q 139 3 149 3 z "},"F":{"ha":701,"x_min":100,"x_max":706,"o":"m 139 0 q 113 11 124 0 q 101 38 101 22 l 101 929 q 113 956 101 944 q 139 967 124 967 q 165 956 154 967 q 176 929 176 944 l 176 38 q 165 11 176 22 q 139 0 154 0 m 140 468 q 108 486 118 468 q 104 515 100 500 q 122 538 108 529 l 647 832 q 676 835 661 839 q 699 817 690 831 q 701 788 706 803 q 683 767 697 774 l 158 472 q 140 468 150 468 m 140 690 q 108 708 119 690 q 104 737 100 722 q 121 760 108 751 l 469 967 q 499 971 483 975 q 521 954 514 967 q 525 926 529 940 q 508 903 521 911 l 158 696 q 140 690 147 690 z "},"f":{"ha":704,"x_min":100,"x_max":706,"o":"m 139 0 q 113 11 124 0 q 101 38 101 22 l 101 929 q 113 956 101 944 q 139 967 124 967 q 165 956 154 967 q 176 929 176 944 l 176 38 q 165 11 176 22 q 139 0 154 0 m 140 468 q 108 486 118 468 q 104 515 100 500 q 122 538 108 529 l 647 832 q 676 835 661 839 q 699 817 690 831 q 701 788 706 803 q 683 767 697 774 l 158 472 q 140 468 150 468 m 140 690 q 108 708 119 690 q 104 737 100 722 q 121 760 108 751 l 469 967 q 499 971 483 975 q 521 954 514 967 q 525 926 529 940 q 508 903 521 911 l 158 696 q 140 690 147 690 z "},"J":{"ha":700,"x_min":-4,"x_max":601,"o":"m 564 0 q 546 4 554 0 l 18 289 q 0 311 4 296 q 3 340 -4 326 q 25 358 10 354 q 54 356 40 363 l 526 100 l 526 935 q 538 961 526 950 q 564 972 549 972 q 590 961 579 972 q 601 935 601 950 l 601 38 q 583 6 601 15 q 574 1 578 3 q 564 0 569 0 z "},"j":{"ha":700,"x_min":-4,"x_max":601,"o":"m 564 0 q 546 4 554 0 l 18 289 q 0 311 4 296 q 3 340 -4 326 q 25 358 10 354 q 54 356 40 363 l 526 100 l 526 935 q 538 961 526 950 q 564 972 549 972 q 590 961 579 972 q 601 935 601 950 l 601 38 q 583 6 601 15 q 574 1 578 3 q 564 0 569 0 z "},"K":{"ha":700,"x_min":101,"x_max":703,"o":"m 139 0 q 113 11 124 0 q 101 38 101 22 l 101 935 q 113 961 101 950 q 139 972 124 972 q 165 961 154 972 q 176 935 176 950 l 176 478 l 638 961 q 664 972 649 972 q 690 961 679 972 q 702 935 701 950 q 692 910 703 921 l 229 424 l 663 424 q 689 413 678 424 q 700 386 700 401 q 689 360 700 371 q 663 350 678 350 l 176 350 l 176 38 q 165 11 176 22 q 139 0 154 0 z "},"k":{"ha":726,"x_min":97,"x_max":703,"o":"m 139 0 q 113 11 124 0 q 101 38 101 22 l 101 935 q 113 961 101 950 q 139 972 124 972 q 165 961 154 972 q 176 935 176 950 l 176 38 q 165 11 176 22 q 139 0 154 0 m 663 350 l 140 350 q 120 356 129 350 q 107 372 111 361 q 114 413 97 393 l 638 961 q 664 972 649 972 q 690 961 679 972 q 702 935 701 950 q 692 910 703 921 l 229 424 l 663 424 q 689 413 678 424 q 700 386 700 401 q 689 360 700 371 q 663 350 678 350 z "},"L":{"ha":700,"x_min":101,"x_max":707,"o":"m 139 0 q 129 1 133 0 q 119 6 125 3 q 101 38 101 15 l 101 935 q 113 961 101 950 q 139 972 124 972 q 165 961 154 972 q 176 935 176 950 l 176 100 l 649 356 q 667 360 657 360 q 700 340 689 360 q 703 311 707 326 q 685 289 699 296 l 157 4 q 139 0 147 0 z "},"l":{"ha":700,"x_min":101,"x_max":707,"o":"m 139 0 q 129 1 133 0 q 119 6 125 3 q 101 38 101 15 l 101 935 q 113 961 101 950 q 139 972 124 972 q 165 961 154 972 q 176 935 176 950 l 176 100 l 649 356 q 678 358 663 363 q 700 340 693 354 q 703 311 707 326 q 685 289 699 296 l 157 4 q 139 0 147 0 z "},"M":{"ha":801,"x_min":101,"x_max":700,"o":"m 139 0 q 113 11 124 0 q 101 38 101 22 l 101 935 q 125 969 101 960 q 165 961 147 979 l 676 447 q 688 421 688 436 q 676 394 688 406 q 649 383 665 383 q 622 394 633 383 l 176 844 l 176 38 q 165 11 176 22 q 139 0 154 0 m 663 0 q 636 11 647 0 q 625 38 625 22 l 625 844 l 178 394 q 151 383 167 383 q 125 394 136 383 q 114 421 114 406 q 125 447 114 436 l 636 961 q 654 972 643 969 q 676 969 665 974 q 700 935 700 960 l 700 38 q 689 11 700 22 q 663 0 678 0 z "},"m":{"ha":801,"x_min":101,"x_max":700,"o":"m 139 0 q 113 11 124 0 q 101 38 101 22 l 101 935 q 125 969 101 960 q 165 961 147 979 l 676 447 q 688 421 688 436 q 676 394 688 406 q 649 383 665 383 q 622 394 633 383 l 176 844 l 176 38 q 165 11 176 22 q 139 0 154 0 m 663 0 q 636 11 647 0 q 625 38 625 22 l 625 844 l 178 394 q 151 383 167 383 q 125 394 136 383 q 114 421 114 406 q 125 447 114 436 l 636 961 q 654 972 643 969 q 676 969 665 974 q 700 935 700 960 l 700 38 q 689 11 700 22 q 663 0 678 0 z "},"N":{"ha":768,"x_min":101,"x_max":703,"o":"m 665 0 q 639 11 650 0 q 628 38 628 22 l 628 610 l 176 869 l 176 38 q 165 11 176 22 q 139 0 154 0 q 113 11 124 0 q 101 38 101 22 l 101 935 q 106 953 101 944 q 119 967 111 963 q 157 967 139 981 l 683 664 q 703 632 703 653 l 703 38 q 692 11 703 22 q 665 0 681 0 z "},"n":{"ha":750,"x_min":101,"x_max":703,"o":"m 665 0 q 639 11 650 0 q 628 38 628 22 l 628 610 l 176 869 l 176 38 q 165 11 176 22 q 139 0 154 0 q 113 11 124 0 q 101 38 101 22 l 101 935 q 106 953 101 944 q 119 967 111 963 q 157 967 139 981 l 683 664 q 703 632 703 653 l 703 38 q 692 11 703 22 q 665 0 681 0 z "},"U":{"ha":767,"x_min":64,"x_max":665,"o":"m 101 972 q 128 961 117 972 q 139 935 139 950 l 139 363 l 590 103 l 590 935 q 601 961 590 950 q 628 972 613 972 q 654 961 643 972 q 665 935 665 950 l 665 38 q 647 6 665 15 q 610 6 629 -8 l 83 308 q 64 340 64 319 l 64 935 q 75 961 64 950 q 101 972 86 972 z "},"u":{"ha":804,"x_min":101,"x_max":703,"o":"m 139 972 q 165 961 154 972 q 176 935 176 950 l 176 363 l 628 103 l 628 935 q 639 961 628 950 q 665 972 650 972 q 692 961 681 972 q 703 935 703 950 l 703 38 q 685 6 703 15 q 647 6 667 -8 l 121 308 q 101 340 101 319 l 101 935 q 113 961 101 950 q 139 972 124 972 z "},"O":{"ha":711,"x_min":51,"x_max":665,"o":"m 364 0 q 332 19 340 0 l 68 479 q 68 515 57 497 l 186 710 l 60 915 q 55 944 51 929 q 72 967 58 960 q 92 972 79 972 q 124 954 113 972 l 229 781 l 332 950 q 364 968 342 968 q 396 950 385 968 l 656 515 q 656 479 665 496 l 539 274 l 651 90 q 655 63 658 78 q 638 39 651 47 q 629 35 635 36 q 619 35 624 35 q 588 53 597 35 l 497 200 l 396 19 q 364 0 385 0 m 496 346 l 581 496 l 364 858 l 274 710 l 496 346 m 143 496 l 364 113 l 454 271 l 229 638 l 143 496 z "},"o":{"ha":732,"x_min":75,"x_max":689,"o":"m 388 0 q 356 19 364 0 l 92 479 q 92 515 81 497 l 210 710 l 83 915 q 78 944 75 929 q 96 967 82 960 q 115 972 103 972 q 147 954 136 972 l 253 781 l 356 950 q 388 968 365 968 q 419 950 408 968 l 679 515 q 679 479 689 496 l 563 274 l 675 90 q 678 63 682 78 q 661 39 675 47 q 653 35 658 36 q 643 35 647 35 q 611 53 621 35 l 521 200 l 419 19 q 388 0 408 0 m 519 346 l 604 496 l 388 858 l 297 710 l 519 346 m 167 496 l 388 113 l 478 271 l 253 638 l 167 496 z "},"Q":{"ha":692,"x_min":31,"x_max":646,"o":"m 342 0 q 310 19 318 0 l 44 481 q 44 518 31 500 l 310 954 q 342 972 319 972 l 342 972 q 374 954 363 972 l 633 518 q 633 481 646 499 l 374 19 q 342 0 363 0 l 342 0 m 119 497 l 342 114 l 560 497 l 342 863 l 119 497 m 597 35 q 565 53 578 35 l 306 475 q 301 504 297 489 q 318 526 304 519 q 346 531 331 535 q 369 514 361 528 l 629 90 q 634 63 638 78 q 617 39 631 47 q 597 35 608 35 z "},"q":{"ha":697,"x_min":42,"x_max":657,"o":"m 353 0 q 321 19 329 0 l 56 481 q 56 518 42 500 l 321 954 q 353 972 331 972 q 385 954 374 972 l 644 518 q 644 481 657 499 l 528 274 l 640 90 q 645 63 649 78 q 628 39 642 47 q 608 35 619 35 q 576 53 589 35 l 486 200 l 385 19 q 353 0 374 0 m 131 497 l 353 114 l 442 271 l 317 475 q 312 504 308 489 q 329 526 315 519 q 349 532 336 532 q 381 514 369 532 l 485 344 l 571 497 l 353 863 l 131 497 z "},"P":{"ha":690,"x_min":101,"x_max":696,"o":"m 139 0 q 113 11 124 0 q 101 38 101 22 l 101 935 q 113 961 101 950 q 139 972 124 972 q 165 961 154 972 q 176 935 176 950 l 176 38 q 165 11 176 22 q 139 0 154 0 m 149 381 q 115 400 126 381 q 113 430 108 415 q 131 451 117 444 l 567 683 l 129 844 q 108 863 114 850 q 107 892 101 876 q 126 914 113 907 q 154 914 140 921 l 671 725 q 696 693 693 718 q 676 658 696 667 l 167 385 q 149 381 157 381 z "},"p":{"ha":693,"x_min":101,"x_max":696,"o":"m 139 0 q 113 11 124 0 q 101 38 101 22 l 101 935 q 113 961 101 950 q 139 972 124 972 q 165 961 154 972 q 176 935 176 950 l 176 906 l 671 725 q 696 693 693 718 q 676 658 696 667 l 176 390 l 176 38 q 165 11 176 22 q 139 0 154 0 m 176 476 l 567 683 l 176 826 l 176 476 z "},"R":{"ha":736,"x_min":101,"x_max":703,"o":"m 139 0 q 113 11 124 0 q 101 38 101 22 l 101 935 q 113 961 101 950 q 139 972 124 972 q 165 961 154 972 q 176 935 176 950 l 176 38 q 165 11 176 22 q 139 0 154 0 m 149 381 q 115 400 126 381 q 113 430 108 415 q 131 451 117 444 l 567 683 l 129 844 q 108 863 114 850 q 107 892 101 876 q 126 914 113 907 q 154 914 140 921 l 671 725 q 696 693 693 718 q 676 658 696 667 l 167 385 q 149 381 157 381 m 663 0 q 632 17 643 0 l 300 497 q 294 524 292 508 q 310 549 297 539 q 338 554 322 557 q 363 539 353 551 l 693 58 q 700 31 703 46 q 683 7 697 15 q 663 0 674 0 z "},"r":{"ha":708,"x_min":101,"x_max":703,"o":"m 139 0 q 113 11 124 0 q 101 38 101 22 l 101 935 q 113 961 101 950 q 139 972 124 972 q 165 961 154 972 q 176 935 176 950 l 176 38 q 165 11 176 22 q 139 0 154 0 m 149 381 q 115 400 126 381 q 113 430 108 415 q 131 451 117 444 l 567 683 l 129 844 q 108 863 114 850 q 107 892 101 876 q 126 914 113 907 q 154 914 140 921 l 671 725 q 696 693 693 718 q 676 658 696 667 l 167 385 q 149 381 157 381 m 663 0 q 632 17 643 0 l 300 497 q 294 524 292 508 q 310 549 297 539 q 338 554 322 557 q 363 539 353 551 l 693 58 q 700 31 703 46 q 683 7 697 15 q 663 0 674 0 z "},"S":{"ha":631,"x_min":11,"x_max":625,"o":"m 319 0 q 301 6 307 0 q 283 27 288 13 q 288 56 279 42 l 515 461 l 54 461 q 21 481 33 461 q 22 518 11 499 l 288 954 q 310 972 294 968 q 339 967 325 975 q 356 944 353 958 q 351 915 358 929 l 121 536 l 579 536 q 611 518 603 536 q 611 481 625 500 l 351 19 q 319 0 340 0 z "},"s":{"ha":644,"x_min":14,"x_max":628,"o":"m 322 0 q 304 6 310 0 q 286 27 290 13 q 290 56 282 42 l 518 461 l 57 461 q 24 481 36 461 q 25 518 14 499 l 290 954 q 313 972 297 968 q 342 967 328 975 q 358 944 356 958 q 354 915 361 929 l 124 536 l 582 536 q 614 518 606 536 q 614 481 628 500 l 354 19 q 322 0 343 0 z "},"T":{"ha":632,"x_min":14,"x_max":619,"o":"m 317 0 q 290 11 301 0 q 279 38 279 22 l 279 864 l 75 728 q 47 721 63 718 q 24 738 32 724 q 17 765 14 750 q 33 789 21 781 l 296 965 q 333 968 315 979 q 354 935 354 958 l 354 38 q 343 11 354 22 q 317 0 332 0 m 579 733 q 569 735 575 733 q 560 739 564 736 l 296 903 q 280 926 283 911 q 285 956 276 942 q 308 972 293 968 q 338 967 324 975 l 600 803 q 616 779 613 794 q 611 751 619 764 q 579 733 601 733 z "},"t":{"ha":646,"x_min":21,"x_max":626,"o":"m 324 0 q 297 11 308 0 q 286 38 286 22 l 286 864 l 82 728 q 54 721 69 718 q 31 738 39 724 q 24 765 21 750 q 40 789 28 781 l 303 965 q 340 968 322 979 q 361 935 361 958 l 361 38 q 350 11 361 22 q 324 0 339 0 m 586 733 q 576 735 582 733 q 567 739 571 736 l 303 903 q 287 926 290 911 q 292 956 283 942 q 315 972 300 968 q 344 967 331 975 l 607 803 q 623 779 619 794 q 618 751 626 764 q 586 733 608 733 z "},"x":{"ha":692,"x_min":43,"x_max":649,"o":"m 81 0 q 54 11 65 0 q 43 37 43 22 q 54 63 43 51 l 294 315 l 142 476 q 131 503 131 488 q 142 529 131 518 l 292 676 l 56 908 q 44 935 44 919 q 56 961 44 950 q 83 972 69 972 q 110 961 99 972 l 346 729 l 582 961 q 607 972 593 972 q 635 961 621 972 q 646 935 646 950 q 635 908 646 919 l 400 676 l 550 529 q 561 503 561 518 q 550 476 561 488 l 397 315 l 638 63 q 648 37 649 51 q 636 11 647 22 q 610 0 626 0 q 583 11 597 0 l 346 261 l 107 11 q 81 0 96 0 m 346 369 l 471 501 l 346 624 l 221 501 l 346 369 z "},"X":{"ha":714,"x_min":54,"x_max":660,"o":"m 92 0 q 65 11 76 0 q 54 37 54 22 q 65 63 54 51 l 482 501 l 67 908 q 56 935 56 919 q 67 961 56 950 q 94 972 78 972 q 121 961 110 972 l 561 529 q 572 503 572 518 q 561 476 572 488 l 118 11 q 92 0 107 0 m 621 0 q 594 11 608 0 l 153 476 q 142 503 142 488 q 153 529 142 518 l 593 961 q 619 972 604 972 q 646 961 635 972 q 657 935 657 950 q 646 908 657 919 l 232 501 l 649 63 q 659 37 660 51 q 647 11 658 22 q 621 0 638 0 z "},"Y":{"ha":650,"x_min":24,"x_max":629,"o":"m 326 0 q 300 11 311 0 q 289 38 289 22 l 289 935 q 300 961 289 950 q 326 972 311 972 q 353 961 342 972 q 364 935 364 950 l 364 38 q 353 11 364 22 q 326 0 342 0 m 321 467 l 321 467 q 302 472 310 467 q 289 485 294 478 l 32 915 q 27 944 24 929 q 44 967 31 958 q 73 972 58 975 q 96 954 88 968 l 322 576 l 557 956 q 581 972 567 968 q 610 967 596 975 q 626 944 622 958 q 621 914 629 929 l 353 483 q 321 467 340 467 z "},"y":{"ha":661,"x_min":29,"x_max":635,"o":"m 332 0 q 306 11 317 0 q 294 38 294 22 l 294 485 l 38 915 q 33 944 29 929 q 50 967 36 958 q 69 972 60 972 q 101 954 90 972 l 294 632 l 294 935 q 306 961 294 950 q 332 972 317 972 q 358 961 347 972 q 369 935 369 950 l 369 643 l 563 956 q 594 972 575 972 q 615 967 606 972 q 631 944 628 958 q 626 914 635 929 l 369 501 l 369 38 q 358 11 369 22 q 332 0 347 0 z "},"z":{"ha":642,"x_min":10,"x_max":622,"o":"m 579 0 l 53 0 q 21 19 32 0 q 21 57 10 38 l 511 897 l 51 897 q 25 908 36 897 q 14 935 14 919 q 25 961 14 950 q 51 972 36 972 l 576 972 q 608 953 600 972 q 608 915 622 935 l 118 75 l 579 75 q 606 64 594 75 q 617 38 617 53 q 606 11 617 22 q 579 0 594 0 m 478 467 l 153 467 q 126 478 138 467 q 115 504 115 489 q 126 531 115 519 q 153 542 138 542 l 478 542 q 504 531 493 542 q 515 504 515 519 q 504 478 515 489 q 478 467 493 467 z "},"Z":{"ha":653,"x_min":22,"x_max":635,"o":"m 592 0 l 65 0 q 33 19 44 0 q 33 57 22 38 l 524 897 l 64 897 q 38 908 49 897 q 26 935 26 919 q 38 961 26 950 q 64 972 49 972 l 589 972 q 621 953 613 972 q 621 915 635 935 l 131 75 l 592 75 q 618 64 607 75 q 629 38 629 53 q 618 11 629 22 q 592 0 607 0 m 490 467 l 165 467 q 139 478 150 467 q 128 504 128 489 q 139 531 128 519 q 165 542 150 542 l 490 542 q 517 531 506 542 q 528 504 528 519 q 517 478 528 489 q 490 467 506 467 z "},"`":{"ha":246,"x_min":94,"x_max":169,"o":"m 132 710 q 106 721 117 710 q 94 747 94 732 l 94 935 q 106 961 94 950 q 132 972 117 972 q 158 961 147 972 q 169 935 169 950 l 169 747 q 158 721 169 732 q 132 710 147 710 z "},",":{"ha":217,"x_min":69,"x_max":144,"o":"m 107 263 q 133 251 122 263 q 144 225 144 240 l 144 38 q 133 11 144 22 q 107 0 122 0 q 81 11 92 0 q 69 38 69 22 l 69 225 q 81 251 69 240 q 107 263 92 263 z "},"=":{"ha":742,"x_min":69,"x_max":672,"o":"m 636 344 l 107 344 q 81 356 92 344 q 69 382 69 367 q 81 408 69 397 q 107 419 92 419 l 636 419 q 662 408 651 419 q 672 382 672 397 q 662 356 672 367 q 636 344 651 344 m 636 472 l 107 472 q 81 483 92 472 q 69 510 69 494 q 81 536 69 525 q 107 547 92 547 l 636 547 q 662 536 651 547 q 672 510 672 525 q 662 483 672 494 q 636 472 651 472 m 407 285 q 384 292 394 285 q 371 313 374 300 l 300 563 q 303 591 296 578 q 325 610 310 604 q 353 606 340 614 q 371 585 367 599 l 443 332 q 439 303 446 317 q 417 286 432 290 q 412 285 414 286 q 407 285 410 285 z "},"-":{"ha":742,"x_min":69,"x_max":672,"o":"m 636 449 l 107 449 q 81 460 92 449 q 69 486 69 471 q 81 513 69 501 q 107 524 92 524 l 636 524 q 662 513 651 524 q 672 486 672 501 q 662 460 672 471 q 636 449 651 449 m 415 326 q 392 334 403 326 q 379 354 382 342 l 308 604 q 311 633 304 619 q 333 651 318 646 q 363 648 349 656 q 379 626 376 640 l 451 374 q 448 345 456 358 q 425 328 440 332 q 420 327 422 328 q 415 326 418 326 z "},"@":{"ha":739,"x_min":69,"x_max":669,"o":"m 632 0 l 107 0 q 81 11 92 0 q 69 38 69 22 l 69 935 q 81 961 69 950 q 107 972 92 972 l 632 972 q 658 961 647 972 q 669 935 669 950 l 669 317 q 658 290 669 301 q 632 279 647 279 l 263 279 q 236 290 247 279 q 225 317 225 301 l 225 706 q 236 732 225 721 q 263 743 247 743 l 263 743 l 594 740 l 594 897 l 144 897 l 144 75 l 594 75 l 594 160 q 606 186 594 175 q 632 197 617 197 q 658 186 647 197 q 669 160 669 175 l 669 38 q 658 11 669 22 q 632 0 647 0 m 300 354 l 594 354 l 594 665 l 300 668 l 300 354 z "},"[":{"ha":528,"x_min":69,"x_max":458,"o":"m 106 451 q 81 463 92 451 q 69 489 69 474 q 81 515 69 504 l 336 771 q 363 782 347 782 q 389 771 378 782 q 400 745 400 760 q 389 719 400 731 l 132 463 q 106 451 121 451 m 106 203 q 81 214 90 203 q 69 240 69 225 q 81 265 69 254 l 336 522 q 363 533 347 533 q 389 522 378 533 q 400 496 400 511 q 389 469 400 481 l 132 214 q 106 203 122 203 m 422 0 l 218 0 q 192 10 203 0 q 182 36 182 21 l 182 936 q 192 962 182 951 q 218 972 203 972 l 422 972 q 448 962 438 972 q 458 936 458 951 q 448 910 458 921 q 422 899 438 899 l 256 899 l 256 74 l 422 74 q 448 63 438 74 q 458 36 458 51 q 448 10 458 21 q 422 0 438 0 z "},"]":{"ha":528,"x_min":69,"x_max":458,"o":"m 422 521 q 447 510 436 521 q 458 483 458 499 q 447 457 458 468 l 192 201 q 165 190 181 190 q 139 201 150 190 q 128 227 128 213 q 139 253 128 242 l 396 510 q 422 521 407 521 m 422 769 q 447 758 438 769 q 458 733 458 747 q 447 707 458 718 l 192 450 q 165 439 181 439 q 139 450 150 439 q 128 476 128 461 q 139 503 128 492 l 396 758 q 422 769 406 769 m 106 972 l 310 972 q 335 962 325 972 q 346 936 346 951 l 346 36 q 335 10 346 21 q 310 0 325 0 l 106 0 q 80 10 90 0 q 69 36 69 21 q 80 63 69 51 q 106 74 90 74 l 272 74 l 272 899 l 106 899 q 80 910 90 899 q 69 936 69 921 q 80 962 69 951 q 106 972 90 972 z "},".":{"ha":347,"x_min":61,"x_max":285,"o":"m 169 0 q 138 18 149 0 q 119 47 129 31 q 101 76 110 63 q 85 101 92 90 q 76 115 79 113 q 76 117 76 117 q 75 119 75 118 q 78 161 61 142 l 147 278 q 179 296 157 296 q 211 278 200 296 l 271 175 q 271 138 285 157 l 201 18 q 169 0 190 0 l 169 0 m 150 138 q 159 124 154 131 q 168 110 164 117 l 197 156 l 179 186 l 150 138 z "},":":{"ha":347,"x_min":61,"x_max":283,"o":"m 169 542 q 138 560 149 542 q 119 588 129 572 q 101 619 110 604 q 85 644 92 633 q 76 658 79 654 q 75 661 75 660 q 78 704 61 683 l 147 821 q 179 839 158 839 q 198 834 189 839 q 211 821 207 829 l 272 718 q 272 681 283 699 l 201 560 q 169 542 190 542 l 169 542 m 150 681 q 159 666 154 674 q 169 651 164 658 l 197 699 l 179 728 l 150 681 m 169 183 q 138 201 149 183 q 119 230 129 214 q 101 260 110 246 q 85 286 92 275 q 76 300 79 297 q 75 303 75 301 q 78 346 61 325 l 147 463 q 179 481 158 481 q 198 476 189 481 q 211 463 207 471 l 272 360 q 272 322 283 340 l 201 201 q 169 183 190 183 l 169 183 m 150 322 q 159 308 154 315 q 169 293 164 300 l 197 340 l 179 369 l 150 322 z "},";":{"ha":347,"x_min":61,"x_max":283,"o":"m 140 226 l 140 399 q 151 425 140 414 q 178 436 163 436 q 204 425 193 436 q 215 399 215 414 l 215 226 q 204 200 215 211 q 178 189 193 189 q 151 200 163 189 q 140 226 140 211 m 169 542 q 138 560 149 542 q 119 588 129 572 q 101 619 110 604 q 85 644 92 633 q 76 658 79 654 q 75 661 75 660 q 78 704 61 683 l 147 821 q 179 839 158 839 q 198 834 189 839 q 211 821 207 829 l 272 718 q 272 681 283 699 l 201 560 q 169 542 190 542 l 169 542 m 150 681 q 159 666 154 674 q 169 651 164 658 l 197 699 l 179 728 l 150 681 z "},"<":{"ha":751,"x_min":69,"x_max":685,"o":"m 644 174 q 629 176 633 174 l 92 414 q 69 447 69 424 q 74 467 69 458 q 89 481 79 476 l 628 761 q 656 764 642 768 q 676 746 669 760 q 679 717 683 732 q 661 696 675 703 l 192 451 l 658 243 q 679 222 674 236 q 678 194 685 208 q 644 174 668 174 z "},">":{"ha":751,"x_min":67,"x_max":682,"o":"m 108 799 q 122 796 118 799 l 660 558 q 682 525 682 550 q 677 505 682 514 q 663 492 672 496 l 125 211 q 97 208 111 204 q 75 226 82 213 q 73 255 68 240 q 90 276 78 269 l 560 521 l 93 729 q 72 750 78 736 q 74 778 67 764 q 108 799 85 799 z "},"^":{"ha":732,"x_min":69,"x_max":665,"o":"m 69 390 q 72 406 69 397 l 311 943 q 343 965 321 965 q 378 944 367 965 l 658 407 q 660 378 665 393 q 642 357 656 364 q 614 355 628 350 q 593 374 600 360 l 347 843 l 140 375 q 120 356 133 361 q 92 357 107 350 q 75 370 81 361 q 69 390 69 379 z "},"?":{"ha":740,"x_min":69,"x_max":676,"o":"m 290 203 q 267 210 278 203 q 254 232 257 218 q 260 260 251 247 q 283 276 268 274 l 436 310 q 465 304 451 313 q 481 281 478 296 q 476 252 485 265 q 453 236 468 239 l 300 203 l 290 203 m 463 0 l 289 0 q 263 11 274 0 q 251 38 251 22 q 263 64 251 53 q 289 75 274 75 l 463 75 q 489 64 478 75 q 500 38 500 53 q 489 11 500 22 q 463 0 478 0 m 368 88 q 342 99 353 88 q 331 125 331 110 l 331 529 q 338 550 331 542 l 564 897 l 107 897 q 81 908 92 897 q 69 935 69 919 q 81 961 69 950 q 107 972 92 972 l 633 972 q 667 953 656 972 q 664 914 676 932 l 406 518 l 406 125 q 394 99 406 110 q 368 88 383 88 z "},"/":{"ha":740,"x_min":67,"x_max":672,"o":"m 107 0 q 97 1 101 0 q 88 6 93 3 q 71 28 75 14 q 75 57 67 43 l 600 954 q 623 971 608 967 q 651 967 638 975 q 669 944 665 958 q 664 915 672 929 l 139 18 q 107 0 128 0 z "},"\\":{"ha":740,"x_min":67,"x_max":672,"o":"m 632 0 q 600 18 611 0 l 75 915 q 71 944 67 929 q 88 967 75 958 q 116 971 101 975 q 139 954 131 967 l 664 57 q 669 28 672 43 q 651 6 665 14 q 632 0 640 0 z "},"|":{"ha":214,"x_min":69,"x_max":144,"o":"m 107 0 q 81 11 92 0 q 69 38 69 22 l 69 935 q 81 961 69 950 q 107 972 92 972 q 133 961 122 972 q 144 935 144 950 l 144 38 q 133 11 144 22 q 107 0 122 0 z "},"H":{"ha":907,"x_min":69,"x_max":840,"o":"m 193 0 q 167 11 178 0 q 156 38 156 22 l 156 897 l 107 897 q 81 908 92 897 q 69 935 69 919 q 81 961 69 950 q 107 972 92 972 l 803 972 q 829 961 818 972 q 840 935 840 950 q 829 908 840 919 q 803 897 818 897 l 754 897 l 754 38 q 743 11 754 22 q 717 0 732 0 q 690 11 701 0 q 679 38 679 22 l 679 428 l 231 428 l 231 38 q 219 11 231 22 q 193 0 208 0 m 231 503 l 679 503 l 679 897 l 231 897 l 231 503 z "},"h":{"ha":910,"x_min":71,"x_max":842,"o":"m 194 0 q 168 11 179 0 q 157 38 157 22 l 157 932 q 168 958 157 947 q 194 969 179 969 q 221 958 210 969 q 232 932 232 947 l 232 38 q 221 11 232 22 q 194 0 210 0 m 718 0 q 692 11 703 0 q 681 38 681 22 l 681 932 q 692 958 681 947 q 718 969 703 969 q 744 958 733 969 q 756 932 756 947 l 756 38 q 744 11 756 22 q 718 0 733 0 m 804 897 l 108 897 q 82 908 93 897 q 71 935 71 919 q 82 961 71 950 q 108 972 93 972 l 804 972 q 831 961 819 972 q 842 935 842 950 q 831 908 842 919 q 804 897 819 897 m 703 428 l 210 428 q 184 439 194 428 q 174 465 174 450 q 184 492 174 481 q 210 503 194 503 l 703 503 q 728 492 718 503 q 739 465 739 481 q 728 439 739 450 q 703 428 718 428 z "},"G":{"ha":696,"x_min":42,"x_max":644,"o":"m 607 0 q 583 10 593 0 l 56 468 q 42 497 42 478 l 42 935 q 53 961 42 950 q 79 972 64 972 l 607 972 q 633 961 622 972 q 644 935 644 950 q 633 908 644 919 q 607 897 622 897 l 115 897 l 115 514 l 569 119 l 569 465 l 425 465 q 399 476 410 465 q 388 503 388 488 l 388 676 q 399 703 388 692 q 425 714 410 714 q 451 703 440 714 q 463 676 463 692 l 463 540 l 607 540 q 633 529 622 540 q 644 503 644 518 l 644 38 q 624 3 644 14 q 607 0 613 0 z "},"g":{"ha":728,"x_min":88,"x_max":690,"o":"m 653 0 q 629 10 639 0 l 101 468 q 88 497 88 478 l 88 935 q 99 961 88 950 q 125 972 110 972 l 653 972 q 679 961 668 972 q 690 935 690 950 q 679 908 690 919 q 653 897 668 897 l 161 897 l 161 514 l 615 119 l 615 465 l 471 465 q 444 476 456 465 q 433 503 433 488 l 433 676 q 444 703 433 692 q 471 714 456 714 q 497 703 486 714 q 508 676 508 692 l 508 540 l 653 540 q 679 529 668 540 q 690 503 690 518 l 690 38 q 669 3 690 14 q 653 0 658 0 z "},"I":{"ha":415,"x_min":-3,"x_max":338,"o":"m 300 0 q 274 11 285 0 q 263 38 263 22 l 263 690 l 11 907 q -1 933 0 918 q 7 960 -3 947 q 36 972 19 972 q 60 964 50 972 l 325 736 q 338 708 338 726 l 338 38 q 326 11 338 22 q 300 0 315 0 z "},"i":{"ha":401,"x_min":-1,"x_max":339,"o":"m 301 0 q 275 11 286 0 q 264 38 264 22 l 264 690 l 13 907 q 0 933 1 918 q 8 960 -1 947 q 35 972 19 971 q 61 964 50 974 l 326 736 q 339 708 339 726 l 339 38 q 328 11 339 22 q 301 0 317 0 z "},"w":{"ha":1000,"x_min":100,"x_max":899,"o":"m 503 0 q 476 11 488 0 l 111 376 q 100 403 100 388 l 100 925 q 111 951 100 940 q 138 961 122 961 q 163 951 153 961 q 174 925 174 940 l 174 418 l 463 129 l 463 935 q 474 961 463 950 q 500 972 485 972 q 526 961 515 972 q 536 935 536 950 l 536 124 l 825 411 l 825 926 q 836 952 825 942 q 863 963 847 963 q 888 952 878 963 q 899 926 899 942 l 899 396 q 888 369 899 381 l 529 11 q 503 0 518 0 z "},"W":{"ha":949,"x_min":75,"x_max":874,"o":"m 478 0 q 451 11 463 0 l 86 376 q 75 403 75 388 l 75 925 q 86 951 75 940 q 113 961 97 961 q 138 951 128 961 q 149 925 149 940 l 149 418 l 478 89 l 800 413 l 800 926 q 810 952 800 942 q 836 963 821 963 q 863 952 851 963 q 874 926 874 942 l 874 396 q 863 371 874 378 l 503 11 q 478 0 494 0 m 475 10 q 449 21 460 10 q 438 47 438 32 l 438 935 q 449 961 438 950 q 475 972 460 972 q 501 961 490 972 q 511 935 511 950 l 511 47 q 501 21 511 32 q 475 10 490 10 z "},"v":{"ha":732,"x_min":65,"x_max":669,"o":"m 428 0 l 294 1 q 271 9 281 1 q 258 31 261 17 l 68 928 q 74 956 65 943 q 97 971 82 968 q 125 965 113 974 q 140 942 138 957 l 325 75 l 399 75 l 594 943 q 610 966 597 958 q 639 971 624 974 q 662 955 654 968 q 667 926 669 942 l 464 29 q 451 8 461 15 q 428 0 442 0 z "},"V":{"ha":704,"x_min":51,"x_max":656,"o":"m 414 0 l 281 1 q 257 9 267 1 q 244 31 247 17 l 54 928 q 60 956 51 943 q 83 971 68 968 q 111 965 99 974 q 126 942 124 957 l 311 75 l 385 75 l 581 943 q 597 966 583 958 q 625 971 610 974 q 648 955 640 968 q 653 926 656 942 l 450 29 q 438 8 447 15 q 414 0 428 0 z "},"{":{"ha":592,"x_min":69,"x_max":522,"o":"m 483 0 q 456 14 465 0 l 78 476 q 69 501 69 488 q 79 525 69 514 l 456 960 q 483 972 467 972 q 508 963 499 972 q 522 938 521 953 q 511 910 522 922 l 156 499 l 513 61 q 521 33 522 49 q 507 8 519 18 q 483 0 499 0 z "},"}":{"ha":592,"x_min":68,"x_max":522,"o":"m 107 972 q 136 958 124 972 l 513 496 q 522 472 522 485 q 511 447 522 458 l 135 13 q 108 0 125 0 q 82 10 93 0 q 69 35 71 19 q 79 63 68 50 l 435 474 l 78 911 q 69 939 68 924 q 83 964 71 954 q 107 972 94 972 z "}}}
